<svg width="16" height="16" viewBox="0 0 16 16" fill="none" xmlns="http://www.w3.org/2000/svg">
<path d="M2.90766 3.00391H12.8562C13.7947 3.00391 14.2678 3.4469 14.2678 4.3479V10.6699C14.2678 11.5634 13.7947 12.0139 12.8562 12.0139H2.90766C1.96912 12.0139 1.49609 11.5634 1.49609 10.6699V4.3479C1.49609 3.4469 1.96912 3.00391 2.90766 3.00391ZM7.87818 9.46107L12.9388 5.30896C13.119 5.1588 13.2617 4.81341 13.0364 4.50557C12.8187 4.19773 12.4207 4.19022 12.1579 4.37793L7.87818 7.27615L3.60594 4.37793C3.34314 4.19022 2.9452 4.19773 2.72746 4.50557C2.50221 4.81341 2.64487 5.1588 2.82507 5.30896L7.87818 9.46107Z" fill="#0E0F1D"/>
</svg>
