<svg width="25" height="25" viewBox="0 0 25 25" fill="none" xmlns="http://www.w3.org/2000/svg">
<g clip-path="url(#clip0_236_1189)">
<path d="M12.038 8.18907C9.76312 8.18907 7.92817 10.0455 7.92817 12.347C7.92817 14.6486 9.76312 16.505 12.038 16.505C14.3129 16.505 16.1479 14.6486 16.1479 12.347C16.1479 10.0455 14.3129 8.18907 12.038 8.18907ZM12.038 15.0502C10.5679 15.0502 9.36608 13.838 9.36608 12.347C9.36608 10.8561 10.5643 9.64381 12.038 9.64381C13.5117 9.64381 14.71 10.8561 14.71 12.347C14.71 13.838 13.5081 15.0502 12.038 15.0502ZM17.2746 8.01899C17.2746 8.55818 16.8454 8.98882 16.316 8.98882C15.783 8.98882 15.3574 8.55456 15.3574 8.01899C15.3574 7.48341 15.7866 7.04916 16.316 7.04916C16.8454 7.04916 17.2746 7.48341 17.2746 8.01899ZM19.9966 9.00329C19.9358 7.70415 19.6425 6.55339 18.7018 5.60527C17.7646 4.65715 16.6272 4.36041 15.3431 4.29528C14.0196 4.21928 10.0528 4.21928 8.7294 4.29528C7.44887 4.3568 6.31142 4.65353 5.3707 5.60165C4.42998 6.54977 4.14025 7.70053 4.07587 8.99967C4.00075 10.3386 4.00075 14.3518 4.07587 15.6908C4.13667 16.9899 4.42998 18.1407 5.3707 19.0888C6.31142 20.0369 7.44529 20.3336 8.7294 20.3988C10.0528 20.4748 14.0196 20.4748 15.3431 20.3988C16.6272 20.3373 17.7646 20.0405 18.7018 19.0888C19.6389 18.1407 19.9322 16.9899 19.9966 15.6908C20.0717 14.3518 20.0717 10.3422 19.9966 9.00329ZM18.2868 17.1274C18.0078 17.8367 17.4677 18.3831 16.7631 18.669C15.7079 19.0924 13.2041 18.9947 12.038 18.9947C10.872 18.9947 8.36455 19.0888 7.31295 18.669C6.61188 18.3867 6.07177 17.8403 5.7892 17.1274C5.3707 16.0599 5.46728 13.5267 5.46728 12.347C5.46728 11.1673 5.37428 8.63056 5.7892 7.56664C6.06819 6.85736 6.6083 6.31093 7.31295 6.02505C8.36813 5.60165 10.872 5.69936 12.038 5.69936C13.2041 5.69936 15.7115 5.60527 16.7631 6.02505C17.4642 6.30731 18.0043 6.85374 18.2868 7.56664C18.7053 8.63418 18.6088 11.1673 18.6088 12.347C18.6088 13.5267 18.7053 16.0635 18.2868 17.1274Z" fill="#0E0F1D"/>
</g>
<defs>
<clipPath id="clip0_236_1189">
<rect width="16.0245" height="18.5281" fill="white" transform="translate(4.01953 3.08984)"/>
</clipPath>
</defs>
</svg>
