<svg width="25" height="25" viewBox="0 0 25 25" fill="none" xmlns="http://www.w3.org/2000/svg">
<g clip-path="url(#clip0_236_1193)">
<path d="M7.65777 19.569V9.15159H4.22223V19.569H7.65777ZM5.94044 7.72842C7.13848 7.72842 7.8842 6.92848 7.8842 5.92883C7.86188 4.90664 7.13853 4.12891 5.96318 4.12891C4.78802 4.12891 4.01953 4.90665 4.01953 5.92883C4.01953 6.92853 4.76507 7.72842 5.91802 7.72842H5.94034H5.94044ZM9.55934 19.569H12.9949V13.7514C12.9949 13.4401 13.0172 13.129 13.1079 12.9065C13.3563 12.2844 13.9216 11.6401 14.8706 11.6401C16.1138 11.6401 16.6111 12.5954 16.6111 13.9958V19.5689H20.0465V13.5957C20.0465 10.3959 18.3516 8.90702 16.0912 8.90702C14.2378 8.90702 13.4241 9.95111 12.972 10.6622H12.995V9.15138H9.55941C9.6045 10.1289 9.55941 19.5688 9.55941 19.5688L9.55934 19.569Z" fill="#0E0F1D"/>
</g>
<defs>
<clipPath id="clip0_236_1193">
<rect width="16.0245" height="15.4401" fill="white" transform="translate(4.01953 4.12891)"/>
</clipPath>
</defs>
</svg>
