<svg width="16" height="16" viewBox="0 0 16 16" fill="none" xmlns="http://www.w3.org/2000/svg">
<g clip-path="url(#clip0_308_1730)">
<path d="M6.96813 13.4699C5.77735 11.9792 3.12891 8.36633 3.12891 6.33698C3.12891 3.87482 5.08981 1.87891 7.50877 1.87891C9.92682 1.87891 11.8886 3.87482 11.8886 6.33698C11.8886 8.36633 9.21965 11.9792 8.04941 13.4699C7.76882 13.8251 7.24871 13.8251 6.96813 13.4699ZM7.50877 7.823C8.31402 7.823 8.96872 7.15661 8.96872 6.33698C8.96872 5.51734 8.31402 4.85096 7.50877 4.85096C6.70351 4.85096 6.04881 5.51734 6.04881 6.33698C6.04881 7.15661 6.70351 7.823 7.50877 7.823Z" fill="#0E0F1D"/>
</g>
<defs>
<clipPath id="clip0_308_1730">
<rect width="8.75972" height="11.8882" fill="white" transform="translate(3.12891 1.87891)"/>
</clipPath>
</defs>
</svg>
