<svg width="16" height="16" viewBox="0 0 16 16" fill="none" xmlns="http://www.w3.org/2000/svg">
<g clip-path="url(#clip0_308_1721)">
<path d="M2.03213 3.37419L3.59393 1.81386C3.7041 1.70321 3.83505 1.61541 3.97925 1.55552C4.12345 1.49562 4.27807 1.46481 4.43422 1.46484C4.75244 1.46484 5.0516 1.58949 5.27597 1.81386L6.95655 3.49444C7.0672 3.60461 7.155 3.73556 7.21489 3.87976C7.27479 4.02396 7.3056 4.17858 7.30557 4.33473C7.30557 4.65295 7.18092 4.95211 6.95655 5.17648L5.72764 6.40539C6.0153 7.03943 6.41524 7.61623 6.90815 8.10796C7.39983 8.60207 7.97658 9.00346 8.61073 9.29287L9.83963 8.06397C9.9498 7.95331 10.0807 7.86551 10.2249 7.80562C10.3692 7.74572 10.5238 7.71491 10.6799 7.71494C10.9981 7.71494 11.2973 7.83959 11.5217 8.06397L13.2037 9.74307C13.3145 9.85345 13.4024 9.98464 13.4623 10.1291C13.5222 10.2736 13.5529 10.4284 13.5527 10.5848C13.5527 10.9031 13.4281 11.2022 13.2037 11.4266L11.6449 12.9854C11.287 13.3447 10.7928 13.5486 10.2854 13.5486C10.1784 13.5486 10.0757 13.5398 9.97454 13.5222C7.99774 13.1966 6.03707 12.1452 4.45474 10.5643C2.87389 8.98491 1.8239 7.0257 1.49394 5.04303C1.39422 4.43738 1.59513 3.81413 2.03213 3.37419Z" fill="#0E0F1D"/>
</g>
<defs>
<clipPath id="clip0_308_1721">
<rect width="15.0167" height="15.0167" fill="white" transform="matrix(-1 0 0 1 15.0176 0)"/>
</clipPath>
</defs>
</svg>
