<svg id="Layer_1" data-name="Layer 1" xmlns="http://www.w3.org/2000/svg" viewBox="0 0 876 896.4"><path d="M1279.78,1257.83,986.26,831.41l-33.19-48.23-210-305-17.4-25.28h-258l62.92,91.44L809.8,949.93,843,998.1,1067.3,1324l17.4,25.25h258Zm-164.41,33.08-233-338.59-33.19-48.2L578.72,511.23H695L913.73,829l33.19,48.2,284.77,413.74Z" transform="translate(-466.7 -452.87)"/><polygon points="382.44 451.25 415.63 499.45 376.29 545.24 74.44 896.4 0 896.4 343.1 497.06 382.44 451.25"/><polygon points="844.94 0 519.56 378.54 480.22 424.3 447.03 376.1 486.37 330.31 706.79 73.77 770.5 0 844.94 0"/></svg>