<svg width="26" height="26" viewBox="0 0 26 26" fill="none" xmlns="http://www.w3.org/2000/svg">
<path fill-rule="evenodd" clip-rule="evenodd" d="M7.11859 10.6516C6.74882 10.3002 6.25607 10.1077 5.74601 10.1154C4.81218 10.1154 4.02026 10.7437 3.73643 11.592C3.58693 12.0361 3.58693 12.5171 3.73643 12.9613C4.02026 13.8096 4.81218 14.439 5.74601 14.439C6.22918 14.439 6.64301 14.3144 6.96368 14.0966C7.15009 13.973 7.30953 13.8129 7.43241 13.6259C7.55529 13.439 7.63906 13.2291 7.67868 13.009H5.74601V11.631H9.11951C9.1614 11.8715 9.18198 12.1141 9.18126 12.359C9.18126 13.4477 8.79234 14.3686 8.11743 14.9915C7.52376 15.5375 6.71126 15.8549 5.74493 15.8549C4.81473 15.8269 3.93202 15.4376 3.28395 14.7697C2.63589 14.1018 2.27344 13.2078 2.27344 12.2772C2.27344 11.3466 2.63589 10.4525 3.28395 9.78463C3.93202 9.11674 4.81473 8.72751 5.74493 8.69947C6.63326 8.68864 7.49234 9.02231 8.13909 9.63114L7.11859 10.6516ZM12.415 12.9017V15.4237H11.6144V9.19564H13.7367C13.9899 9.19038 14.2417 9.23534 14.4775 9.32794C14.7133 9.42054 14.9284 9.55894 15.1103 9.73514C15.2943 9.90053 15.4407 10.1034 15.5397 10.33C15.6387 10.5567 15.6881 10.8019 15.6845 11.0492C15.6892 11.2978 15.6403 11.5445 15.5413 11.7726C15.4422 12.0006 15.2952 12.2047 15.1103 12.3709C14.7398 12.7248 14.282 12.9017 13.7367 12.9017H12.415ZM12.415 9.96264V12.1369H13.7562C13.9031 12.1409 14.0492 12.1144 14.1854 12.059C14.3215 12.0036 14.4446 11.9206 14.547 11.8151C14.6487 11.7162 14.7296 11.5979 14.7848 11.4672C14.84 11.3365 14.8684 11.196 14.8684 11.0541C14.8684 10.9122 14.84 10.7717 14.7848 10.641C14.7296 10.5103 14.6487 10.392 14.547 10.2931C14.4462 10.185 14.3236 10.0996 14.1872 10.0426C14.0508 9.98562 13.9039 9.95836 13.7562 9.96264H12.415ZM17.5283 11.0243C18.1198 11.0243 18.5868 11.1821 18.9291 11.4977C19.2707 11.8141 19.4415 12.2474 19.4415 12.7977V15.4237H18.6756V14.8322H18.6409C18.3101 15.3197 17.8696 15.5635 17.3193 15.5635C16.8498 15.5635 16.4573 15.4241 16.1417 15.1453C15.99 15.0177 15.8686 14.8578 15.7865 14.6773C15.7044 14.4968 15.6637 14.3003 15.6672 14.1021C15.6672 13.6615 15.8336 13.3112 16.1666 13.0512C16.5003 12.7898 16.9451 12.6591 17.5013 12.6591C17.9772 12.6591 18.3687 12.7457 18.6756 12.9191V12.7371C18.6766 12.6018 18.6475 12.4681 18.5903 12.3455C18.5332 12.223 18.4494 12.1147 18.3452 12.0286C18.1334 11.8377 17.8578 11.7333 17.5728 11.7361C17.1264 11.7361 16.7725 11.9249 16.5111 12.3026L15.8069 11.8585C16.1948 11.3024 16.7686 11.0243 17.5283 11.0243ZM16.4927 14.1194C16.4921 14.2213 16.5159 14.3218 16.562 14.4127C16.6082 14.5035 16.6754 14.582 16.7581 14.6416C16.9351 14.7806 17.1549 14.8541 17.3799 14.8496C17.7179 14.8496 18.0408 14.7152 18.2791 14.4769C18.5456 14.2277 18.6785 13.9349 18.6778 13.5983C18.4286 13.399 18.0808 13.2997 17.6345 13.3004C17.3095 13.3004 17.0387 13.3788 16.822 13.5355C16.6025 13.6929 16.4927 13.8879 16.4927 14.1205M21.1618 17.3033L23.8344 11.163H22.9634L21.7284 14.2245H21.7111L20.4414 11.163H19.5715L21.3287 15.154L20.3363 17.3022L21.1618 17.3033Z" fill="black"/>
</svg>
