<svg width="26" height="26" viewBox="0 0 26 26" fill="none" xmlns="http://www.w3.org/2000/svg">
<g opacity="0.4">
<path d="M7.58351 21.6663C6.98767 21.6663 6.47779 21.4543 6.05384 21.0304C5.6299 20.6064 5.41756 20.0962 5.41684 19.4996V11.7538L3.25017 13.4059C2.9974 13.5864 2.72656 13.6633 2.43767 13.6366C2.14878 13.6099 1.91406 13.4698 1.73351 13.2163C1.55295 12.9628 1.48073 12.6919 1.51684 12.4038C1.55295 12.1156 1.6974 11.8809 1.95017 11.6996L11.6731 4.25169C11.8717 4.10725 12.084 3.99891 12.3101 3.92669C12.5361 3.85447 12.7662 3.81836 13.0002 3.81836C13.2342 3.81836 13.4646 3.85447 13.6913 3.92669C13.9181 3.99891 14.1301 4.10725 14.3273 4.25169L17.3335 6.55378V5.95794C17.3335 5.50655 17.4917 5.12305 17.808 4.80744C18.1243 4.49183 18.5078 4.33366 18.9585 4.33294C19.4092 4.33222 19.793 4.49039 20.1101 4.80744C20.4271 5.1245 20.585 5.508 20.5835 5.95794V9.04544L24.0502 11.6996C24.2849 11.8802 24.425 12.1149 24.4705 12.4038C24.516 12.6927 24.4481 12.9635 24.2668 13.2163C24.0856 13.4691 23.8508 13.6092 23.5627 13.6366C23.2745 13.6641 23.0037 13.5871 22.7502 13.4059L20.5835 11.7538V19.4996C20.5835 20.0954 20.3715 20.6057 19.9476 21.0304C19.5236 21.455 19.0134 21.667 18.4168 21.6663H16.2502C15.6543 21.6663 15.1445 21.4543 14.7205 21.0304C14.2966 20.6064 14.0842 20.0962 14.0835 19.4996V15.1663H11.9168V19.4996C11.9168 20.0954 11.7049 20.6057 11.2809 21.0304C10.857 21.455 10.3467 21.667 9.75017 21.6663H7.58351ZM7.58351 19.4996H9.75017V15.1663C9.75017 14.5704 9.96251 14.0606 10.3872 13.6366C10.8118 13.2127 11.3217 13.0003 11.9168 12.9996H14.0835C14.6793 12.9996 15.1896 13.2119 15.6143 13.6366C16.0389 14.0613 16.2509 14.5712 16.2502 15.1663V19.4996H18.4168V10.1017L13.0002 5.98503L7.58351 10.1017V19.4996ZM10.8335 10.86H15.1668C15.1668 10.2822 14.9502 9.80811 14.5168 9.43761C14.0835 9.06711 13.578 8.88222 13.0002 8.88294C12.4224 8.88366 11.9168 9.06892 11.4835 9.43869C11.0502 9.80847 10.8335 10.2822 10.8335 10.86Z" fill="black"/>
</g>
</svg>
