<svg width="26" height="26" viewBox="0 0 26 26" fill="none" xmlns="http://www.w3.org/2000/svg">
<g opacity="0.4">
<path d="M4.45752 13.0057L9.05085 17.599C9.15197 17.7001 9.20613 17.8247 9.21335 17.9727C9.22058 18.1193 9.16641 18.2504 9.05085 18.366C8.9353 18.4815 8.80747 18.5393 8.66735 18.5393C8.52724 18.5393 8.39941 18.4815 8.28385 18.366L3.53019 13.6112C3.43558 13.5173 3.36913 13.4209 3.33085 13.322C3.29258 13.2238 3.27344 13.1162 3.27344 12.9992C3.27344 12.8822 3.29258 12.7745 3.33085 12.6763C3.36913 12.5781 3.43558 12.4817 3.53019 12.3871L8.28385 7.63232C8.3893 7.52687 8.5146 7.47054 8.65977 7.46332C8.80494 7.4561 8.9371 7.51243 9.05627 7.63232C9.17544 7.75221 9.23538 7.88112 9.2361 8.01907C9.23683 8.15701 9.17724 8.28593 9.05735 8.40582L4.45752 13.0057ZM21.5449 12.9927L16.9516 8.39932C16.8498 8.29821 16.7956 8.17398 16.7891 8.02665C16.7826 7.87932 16.8368 7.74787 16.9516 7.63232C17.0664 7.51676 17.1939 7.45898 17.334 7.45898C17.4741 7.45898 17.602 7.51676 17.7175 7.63232L22.4712 12.3871C22.5658 12.481 22.6322 12.5774 22.6705 12.6763C22.7088 12.7753 22.7279 12.8829 22.7279 12.9992C22.7279 13.1154 22.7088 13.223 22.6705 13.322C22.6322 13.4209 22.5658 13.5177 22.4712 13.6123L17.7175 18.366C17.6121 18.4714 17.4879 18.5267 17.3449 18.5317C17.2019 18.5361 17.0704 18.4787 16.9505 18.3595C16.8306 18.2403 16.771 18.1114 16.7718 17.9727C16.7718 17.8348 16.8314 17.7059 16.9505 17.586L21.5449 12.9927Z" fill="black"/>
</g>
</svg>
