<svg width="24" height="24" viewBox="0 0 24 24" fill="none" xmlns="http://www.w3.org/2000/svg">
<g opacity="0.4">
<path d="M21 7.48604C21 6.38804 21 5.84004 20.724 5.37604C20.448 4.91204 19.939 4.61004 18.922 4.00104L17.628 3.22704C16.031 2.27104 15.232 1.79304 14.616 2.08904C14 2.38504 14 3.24604 14 4.96804V22.001H21V7.48604Z" stroke="black" stroke-width="1.5" stroke-linejoin="round"/>
<path d="M22 22H2M14 9H10M14 15H10" stroke="black" stroke-width="1.5" stroke-linecap="round" stroke-linejoin="round"/>
<path d="M3 7.48547C3 6.38747 3 5.83947 3.276 5.37547C3.552 4.91147 4.061 4.60947 5.078 4.00047L6.372 3.22647C7.97 2.26947 8.768 1.79047 9.384 2.08747C10 2.38447 10 3.24547 10 4.96747V22.0005H3V7.48547Z" stroke="black" stroke-width="1.5" stroke-linejoin="round"/>
<path d="M6.50119 8H6.49219M6.50219 12H6.49219M6.50219 16H6.49219M17.5012 8H17.4922M17.5022 12H17.4922M17.5022 16H17.4922" stroke="black" stroke-width="2" stroke-linecap="round" stroke-linejoin="round"/>
</g>
</svg>
